<svg xmlns="http://www.w3.org/2000/svg" width="250" height="250" fill="none" viewBox="0 0 250 250">
<!-- SVG created with Arrow, by QuiverAI (https://quiver.ai) -->
  <path d="m250 133c-2.41 0.01-3.78-0.53-5.95-2.47-3.73-3.28-6.93-4.88-11.2-7.35-2.88-1.59-4.72-2.45-7.35-4.6-1.95-1.55-4.98-1.77-7.84-2.82-3.04-1.11-6.37-2.53-9.34-2.7-2.16-0.12-2.09-0.49-4.5-0.12-1.2 0.21-3.14-0.09-5.09 0.4-3.65 0.98-3.91 1.09-6.68 2.41-2.36 0.85-5.11 1.83-7.6 2.64-2.53 1.09-4.24 0.85-7.56 0.56-4.7 0-7.42-2.27-10.17-6.3-0.89-1.1-1.5-1.05-3.53-0.57-2.1 0.49-4.08 0.11-5.21 0.21-0.99 0.08-1.76 0.56-2.75-0.01-1.33-0.8-2.21-0.74-3.18-1-1.3-0.37-1.5-1.62-3.18-1.76-1.46-0.13-1.16 0.73-2.61 0.73-2.09 0-2.07-1.25-3.66-1.16-1.68 0.09-2.71 2.62-5.16 2.91-2.46 0.28-4.81-2.44-7.65-2.44-2.51 0-2.57-1-4.29-0.91-1.5 0.08-2.37 1.02-4.81 0.97-2.51-0.06-3.62 0.36-5.24 0.13-2.25-0.34-3.83 0.7-5.66 0.4-1.9-0.32-2.77-1.39-4.79-0.87-1.5 0.44-1.63 0.99-3.71 0.85-1.26-0.09-1.23-1.36-2.62-0.54-1.45 0.89-1.92 3.07-3.4 3.2-1.68 0.15-1.74-0.81-3.12-0.58-1.54 0.28-2.41 0.94-4.31 0.76-2.64-0.29-3.09-0.04-5.69 1.24-1.7 0.86-3.17 0.82-5.46 0.37-2.46-0.18-3.2-1.58-5.49-2.41-2.85-1.04-4.01-1.15-5.57-1.37-4.45-0.62-7.57 0.79-11.05 2.61-2.78 1.32-5.38 2.18-7.84 3.35-2.35 1.05-4.05 2.82-6.48 3.11-5.53 0.69-13.45 5.58-18.16 7.03-2.76 0.88-4.51 1.69-7.43 1.98-2.55 0.28-3.69 0.8-5.98 1.71-2.66 1.07-4.8 1.23-8.67 1.49" stroke="#0B7679" stroke-linecap="round" stroke-miterlimit="10" stroke-width="3"/>
</svg>